<svg id="圖層_1" data-name="圖層 1" xmlns="http://www.w3.org/2000/svg" width="885" height="159.14875" viewBox="0 0 885 159.14875">
  <g id="Group_130" data-name="Group 130">
    <g id="Group_127" data-name="Group 127">
      <g id="Group_116" data-name="Group 116">
        <g id="Group_115" data-name="Group 115">
          <path id="Path_145" data-name="Path 145" d="M938.93015,594.7274a87.67839,87.67839,0,0,1-55.25951,19.41449,82.263,82.263,0,0,1-30.60633-5.548,68.0208,68.0208,0,0,1-23.96782-15.8558,72.14884,72.14884,0,0,1-15.54623-24.66047,93.93313,93.93313,0,0,1-.29478-62.78953,74.5342,74.5342,0,0,1,15.24425-25.45621,73.744,73.744,0,0,1,24.27-17.322,78.09985,78.09985,0,0,1,32.4852-6.43958A92.83582,92.83582,0,0,1,911.5954,459.629a82.29841,82.29841,0,0,1,21.7944,9.90987l-2.5714,26.52456h-.59675a57.29232,57.29232,0,0,0-19.79076-13.74856,62.87069,62.87069,0,0,0-24.76357-4.85547,55.00857,55.00857,0,0,0-22.37632,4.36181,48.57811,48.57811,0,0,0-16.82833,12.08341,53.91932,53.91932,0,0,0-10.69821,18.41983,69.74686,69.74686,0,0,0-3.75772,23.37846,71.002,71.002,0,0,0,3.75772,23.76157,50.77989,50.77989,0,0,0,10.69821,18.12511,47.55291,47.55291,0,0,0,16.62934,11.494,54.89826,54.89826,0,0,0,21.367,4.05236,52.858,52.858,0,0,0,17.61667-2.66719,39.352,39.352,0,0,0,13.08545-7.62581V540.05734h23.76163Z" transform="translate(-808 -455.6024)" style="fill: #323232"/>
        </g>
      </g>
      <g id="Group_118" data-name="Group 118">
        <g id="Group_117" data-name="Group 117">
          <path id="Path_146" data-name="Path 146" d="M969.62476,458.649h41.79832a63.30558,63.30558,0,0,1,40.20682,11.29505,43.31957,43.31957,0,0,1,4.75988,59.22345,56.4745,56.4745,0,0,1-26.35507,15.84106l54.2796,66.54718h-29.11062l-48.73162-62.38428q-2.21018.19894-4.56066.19894h-9.3057v62.18534h-22.9805Zm22.9805,74.86557h3.37457q46.14526,0,46.14537-29.11071a22.95132,22.95132,0,0,0-8.61316-19.21556,39.69834,39.69834,0,0,0-24.85936-6.73429h-16.04Z" transform="translate(-808 -455.6024)" style="fill: #323232"/>
        </g>
      </g>
      <g id="Group_120" data-name="Group 120">
        <g id="Group_119" data-name="Group 119">
          <path id="Path_147" data-name="Path 147" d="M1366.38061,496.88125h-.58934a50.61128,50.61128,0,0,0-18.61883-13.778,62.89274,62.89274,0,0,0-25.35313-4.85547,53.63071,53.63071,0,0,0-22.1038,4.465A52.48132,52.48132,0,0,0,1282.482,494.8919a54.75274,54.75274,0,0,0-11.18457,18.02934,61.2347,61.2347,0,0,0-3.9639,22.17748,64.39151,64.39151,0,0,0,3.9639,23.08373,52.14278,52.14278,0,0,0,11.0962,17.81566,50.10105,50.10105,0,0,0,17.02733,11.58977,55.71589,55.71589,0,0,0,21.7944,4.16288,62.208,62.208,0,0,0,26.34046-5.548,66.66483,66.66483,0,0,0,22.39116-17.43253h.57449l-2.5714,30.31166a76.39648,76.39648,0,0,1-22.77431,11.1919,88.60012,88.60012,0,0,1-25.94988,3.86818,80.907,80.907,0,0,1-30.59172-5.6512,68.32943,68.32943,0,0,1-23.97524-16.04,73.96608,73.96608,0,0,1-15.642-25.051,90.33838,90.33838,0,0,1-5.64377-32.68416,81.04652,81.04652,0,0,1,5.64377-30.098,77.74573,77.74573,0,0,1,15.841-25.051,75.18992,75.18992,0,0,1,55.37013-23.47424,98.80363,98.80363,0,0,1,27.033,3.35977,69.80285,69.80285,0,0,1,21.49962,10.3151Z" transform="translate(-808 -455.6024)" style="fill: #323232"/>
        </g>
      </g>
      <g id="Group_122" data-name="Group 122">
        <g id="Group_121" data-name="Group 121">
          <path id="Path_148" data-name="Path 148" d="M1414.508,522.43324h53.69v19.20084h-53.69v49.72619h62.797v20.20288h-85.76285V458.649h84.73123v20.40182h-61.80223Z" transform="translate(-808 -455.6024)" style="fill: #323232"/>
        </g>
      </g>
      <g id="Group_124" data-name="Group 124">
        <g id="Group_123" data-name="Group 123">
          <path id="Path_149" data-name="Path 149" d="M1515.43367,589.96773a50.61033,50.61033,0,0,0,20.2987,3.97133,29.6487,29.6487,0,0,0,19.51036-5.85749,19.59134,19.59134,0,0,0,7.02908-15.93686,23.43056,23.43056,0,0,0-1.47367-8.42892,24.355,24.355,0,0,0-5.05444-7.7216,52.79516,52.79516,0,0,0-9.5047-7.82475q-5.93844-3.94183-14.86111-8.70889a142.80991,142.80991,0,0,1-16.62934-10.3151,52.18729,52.18729,0,0,1-10.80141-10.31511,34.793,34.793,0,0,1-5.84277-11.58976,50.83345,50.83345,0,0,1-1.77565-13.99907,34.91668,34.91668,0,0,1,12.06868-26.834,41.9968,41.9968,0,0,1,13.778-7.92054,52.12072,52.12072,0,0,1,17.71987-2.88086,83.84675,83.84675,0,0,1,34.865,7.36793V488.7618a81.17131,81.17131,0,0,0-17.72729-9.71095,44.53168,44.53168,0,0,0-15.54623-2.94717,22.70819,22.70819,0,0,0-16.34941,5.25334,17.057,17.057,0,0,0-5.445,12.776,24.10075,24.10075,0,0,0,1.18632,7.81738,18.75848,18.75848,0,0,0,4.4208,6.84482,48.58013,48.58013,0,0,0,9.21734,7.029q5.93844,3.684,15.2591,8.41418a124.72134,124.72134,0,0,1,16.82833,10.3151,51.911,51.911,0,0,1,11.192,10.9856,39.51,39.51,0,0,1,6.145,12.37813,51.47323,51.47323,0,0,1,1.87886,14.27169,40.39924,40.39924,0,0,1-3.75772,17.72724,38.62073,38.62073,0,0,1-10.60242,13.37279,48.39864,48.39864,0,0,1-16.44519,8.51,70.85766,70.85766,0,0,1-21.087,2.94718,83.69863,83.69863,0,0,1-19.525-2.21037,53.49,53.49,0,0,1-15.9368-6.53536l-2.37241-28.32235h.58214A72.4845,72.4845,0,0,0,1515.43367,589.96773Z" transform="translate(-808 -455.6024)" style="fill: #323232"/>
        </g>
      </g>
      <g id="Group_126" data-name="Group 126">
        <g id="Group_125" data-name="Group 125">
          <path id="Path_150" data-name="Path 150" d="M1622.59317,589.96773a50.66157,50.66157,0,0,0,20.29869,3.97133,29.64871,29.64871,0,0,0,19.51037-5.85749,19.59878,19.59878,0,0,0,7.04369-15.93686,23.13445,23.13445,0,0,0-1.47367-8.42892,24.31285,24.31285,0,0,0-5.05444-7.7216,53.048,53.048,0,0,0-9.49728-7.82475q-5.93844-3.94183-14.85369-8.70889a143.03572,143.03572,0,0,1-16.64418-10.3151,51.78881,51.78881,0,0,1-10.78657-10.31511,35.09882,35.09882,0,0,1-5.87222-11.5603,50.86841,50.86841,0,0,1-1.77566-13.99907,35.14522,35.14522,0,0,1,3.16074-14.94953,35.50519,35.50519,0,0,1,8.92256-11.88449,41.75348,41.75348,0,0,1,13.76338-7.92053,52.114,52.114,0,0,1,17.71987-2.88087,83.94235,83.94235,0,0,1,34.87245,7.36794v25.78776a81.534,81.534,0,0,0-17.71988-9.7404,44.5322,44.5322,0,0,0-15.55365-2.94717,22.64885,22.64885,0,0,0-16.33478,5.25334,17.02,17.02,0,0,0-5.4522,12.776,23.73433,23.73433,0,0,0,1.20093,7.81738,18.41994,18.41994,0,0,0,4.4208,6.84482,47.98618,47.98618,0,0,0,9.2025,7.029q5.96037,3.684,15.2591,8.41418a124.77878,124.77878,0,0,1,16.82833,10.3151,51.965,51.965,0,0,1,11.19918,10.9856,39.44168,39.44168,0,0,1,6.13755,12.37813,51.5162,51.5162,0,0,1,1.87886,14.27169,40.39924,40.39924,0,0,1-3.75772,17.72724,38.6156,38.6156,0,0,1-10.60242,13.37279,48.35465,48.35465,0,0,1-16.43058,8.51,71.01171,71.01171,0,0,1-21.10186,2.94718,83.50027,83.50027,0,0,1-19.51036-2.21037,53.43933,53.43933,0,0,1-15.95164-6.53536L1603.267,577.678h.58934A72.69194,72.69194,0,0,0,1622.59317,589.96773Z" transform="translate(-808 -455.6024)" style="fill: #323232"/>
        </g>
      </g>
    </g>
    <g id="Group_129" data-name="Group 129">
      <g id="Group_128" data-name="Group 128">
        <path id="Path_151" data-name="Path 151" d="M1178.00447,456.66707l-17.43251,2.77034-68.73552,152.1257h27.48966l25.7509-64.17469,23.62154-59.22345,22.19959,59.22345,24.95514,64.17469h27.51913Z" transform="translate(-808 -455.6024)" style="fill: #323232"/>
      </g>
    </g>
  </g>
</svg>
