<svg id="圖層_1" data-name="圖層 1" xmlns="http://www.w3.org/2000/svg" width="906.80599" height="294.65692" viewBox="0 0 906.80599 294.65692">
  <g id="Group_250" data-name="Group 250">
    <g id="Group_92" data-name="Group 92">
      <g id="Group_88" data-name="Group 88">
        <g id="Group_85" data-name="Group 85">
          <g id="Group_84" data-name="Group 84">
            <path id="Path_121" data-name="Path 121" d="M918.50873,544.33158,811.194,802.173l233.392-277.03625Z" transform="translate(-811.19401 -513.08667)" style="fill: #87b0ae"/>
          </g>
        </g>
        <g id="Group_87" data-name="Group 87">
          <g id="Group_86" data-name="Group 86">
            <path id="Path_122" data-name="Path 122" d="M811.194,802.173l130.506-19.95418L976.437,695.82826Z" transform="translate(-811.19401 -513.08667)" style="fill: #fcbd37"/>
          </g>
        </g>
      </g>
      <g id="Group_91" data-name="Group 91">
        <g id="Group_90" data-name="Group 90">
          <g id="Group_89" data-name="Group 89">
            <path id="Path_123" data-name="Path 123" d="M1044.586,525.13676l-15.76936,282.60683h.632L1126.559,513.08667Z" transform="translate(-811.19401 -513.08667)" style="fill: #fff"/>
          </g>
        </g>
      </g>
    </g>
    <g id="Group_131" data-name="Group 131">
      <g id="Group_114" data-name="Group 114">
        <g id="Group_93" data-name="Group 93">
          <path id="Path_124" data-name="Path 124" d="M1162.62067,741.27392a2.87125,2.87125,0,0,1,2.13946.82033,2.90441,2.90441,0,0,1,.8204,2.13954,2.81025,2.81025,0,0,1-2.69479,2.92108q-.11316.00456-.22633,0a2.90449,2.90449,0,0,1-2.12288-.79264,2.87072,2.87072,0,0,1-.79265-2.1229,2.9262,2.9262,0,0,1,.79265-2.13954A2.77149,2.77149,0,0,1,1162.62067,741.27392Zm2.4277,10.38727v22.17132h-4.86655V752.69216Z" transform="translate(-811.19401 -513.08667)" style="fill: #fff"/>
        </g>
        <g id="Group_94" data-name="Group 94">
          <path id="Path_125" data-name="Path 125" d="M1177.33128,752.21548h4.86656v3.37559a12.78189,12.78189,0,0,1,3.66928-3.04855,8.46452,8.46452,0,0,1,3.92995-.92566,6.92868,6.92868,0,0,1,5.15479,1.85131,7.56648,7.56648,0,0,1,1.82365,5.54283v14.87141H1191.92V760.70157a5.27121,5.27121,0,0,0-.95335-3.49753,3.67482,3.67482,0,0,0-2.93769-1.10857,5.44814,5.44814,0,0,0-2.61072.63743,6.0039,6.0039,0,0,0-1.94,1.61851,5.17637,5.17637,0,0,0-1.28591,3.84672v11.68428h-4.86655Z" transform="translate(-811.19401 -513.08667)" style="fill: #fff"/>
        </g>
        <g id="Group_95" data-name="Group 95">
          <path id="Path_126" data-name="Path 126" d="M1209.9564,752.20992v-6.3687l4.86655-.92565v7.29435h6.18579v4.06291H1214.823V766.577a16.62136,16.62136,0,0,0,.15529,2.5885,5.32274,5.32274,0,0,0,.55431,1.79034,4.21875,4.21875,0,0,0,1.10864,1.31919,10.73438,10.73438,0,0,0,1.74042,1.15291v.3492l-5.34881.62079a4.83394,4.83394,0,0,1-1.31923-.89793,4.46864,4.46864,0,0,1-.95335-1.36909,7.86814,7.86814,0,0,1-.55432-2.03422,18.35077,18.35077,0,0,1-.1996-2.8989V756.27283h-4.06291v-4.06291Z" transform="translate(-811.19401 -513.08667)" style="fill: #fff"/>
        </g>
        <g id="Group_96" data-name="Group 96">
          <path id="Path_127" data-name="Path 127" d="M1240.331,764.23788c-.96993.28821-2.134.55427-3.46985.81479s-2.58856.45451-3.73035.59307a6.2802,6.2802,0,0,0,2.02866,3.47535,6.38518,6.38518,0,0,0,4.33457,1.34691,9.33931,9.33931,0,0,0,4.0629-.909,9.52848,9.52848,0,0,0,3.23152-2.48874h.13295l-.30481,5.07724a10.99152,10.99152,0,0,1-3.381,1.818,12.948,12.948,0,0,1-4.09623.66513,11.56818,11.56818,0,0,1-4.63938-.86467,9.64485,9.64485,0,0,1-3.29241-2.2781,9.10124,9.10124,0,0,1-1.94-3.29245,11.965,11.965,0,0,1-.64854-3.88,13.13205,13.13205,0,0,1,.89246-4.75576,13.26548,13.26548,0,0,1,2.47218-4.11278,12.47274,12.47274,0,0,1,3.80241-2.89335,10.73094,10.73094,0,0,1,4.85556-1.10858,7.32213,7.32213,0,0,1,5.11047,1.66285,5.3321,5.3321,0,0,1,1.79033,4.10724,5.95277,5.95277,0,0,1-1.66279,4.24581A11.9615,11.9615,0,0,1,1240.331,764.23788Zm-.837-9.24544a4.73348,4.73348,0,0,0-2.4277.66513,7.233,7.233,0,0,0-2.03424,1.76263,9.64635,9.64635,0,0,0-1.44119,2.56633,10.5337,10.5337,0,0,0-.63737,3.04856q1.41327-.22173,2.98759-.55428c1.042-.23834,1.98993-.48223,2.84906-.75383a6.71178,6.71178,0,0,0,2.95985-1.60743,3.19811,3.19811,0,0,0,.92561-2.21714,2.71047,2.71047,0,0,0-.837-2.09518A3.32581,3.32581,0,0,0,1239.494,754.99244Z" transform="translate(-811.19401 -513.08667)" style="fill: #fff"/>
        </g>
        <g id="Group_97" data-name="Group 97">
          <path id="Path_128" data-name="Path 128" d="M1269.50853,757.02665a2.65982,2.65982,0,0,0-.52657-.04434h-.55432a12.32782,12.32782,0,0,0-2.52749.24388,9.37161,9.37161,0,0,0-2.2171.72611,4.224,4.224,0,0,0-1.879,1.52983,4.43344,4.43344,0,0,0-.46568,2.18388v12.19423h-4.86115V752.21547h4.86115v3.57513a12.0448,12.0448,0,0,1,2.89337-2.80468,6.88967,6.88967,0,0,1,3.95752-1.10857h.69286a4.30557,4.30557,0,0,1,.593.061Z" transform="translate(-811.19401 -513.08667)" style="fill: #fff"/>
        </g>
        <g id="Group_98" data-name="Group 98">
          <path id="Path_129" data-name="Path 129" d="M1280.66072,752.21548h4.86655v3.37559a12.7481,12.7481,0,0,1,3.65829-3.04855,8.49757,8.49757,0,0,1,3.941-.92566,6.88959,6.88959,0,0,1,5.14921,1.85131,7.56629,7.56629,0,0,1,1.83464,5.54283v14.87141h-4.86656V760.70157a5.32121,5.32121,0,0,0-.94235-3.49753,3.69152,3.69152,0,0,0-2.94328-1.10857,5.39855,5.39855,0,0,0-2.60514.63743,6.136,6.136,0,0,0-1.951,1.61851,6.34382,6.34382,0,0,0-.96992,1.63512,6.23145,6.23145,0,0,0-.30482,2.21714v11.67874h-4.86655Z" transform="translate(-811.19401 -513.08667)" style="fill: #fff"/>
        </g>
        <g id="Group_99" data-name="Group 99">
          <path id="Path_130" data-name="Path 130" d="M1311.63976,753.76192a10.69159,10.69159,0,0,1,3.44212-1.63512,14.08987,14.08987,0,0,1,3.88-.55428,7.97051,7.97051,0,0,1,6.09715,2.05084,8.18108,8.18108,0,0,1,1.92328,5.80889v13.97348l-4.728,1.01433v-3.04855a14.65392,14.65392,0,0,1-3.32573,2.13954,9.19021,9.19021,0,0,1-4.01859.86467,6.25777,6.25777,0,0,1-4.20144-1.31919,4.70588,4.70588,0,0,1-1.5464-3.76358,5.95291,5.95291,0,0,1,1.28591-3.84673,10.10435,10.10435,0,0,1,3.71377-2.69936,23.52392,23.52392,0,0,1,3.625-1.25822,34.3675,34.3675,0,0,1,4.46194-.8148v-1.21943a3.73569,3.73569,0,0,0-1.01983-2.80467,4.23455,4.23455,0,0,0-3.08181-.99771,10.07163,10.07163,0,0,0-3.36447.59307,8.4682,8.4682,0,0,0-2.95985,1.79035h-.133Zm10.56467,9.50042a30.032,30.032,0,0,0-3.00417.60417,13.10537,13.10537,0,0,0-2.655.94228,3.63614,3.63614,0,0,0-2.38337,3.27581,2.48872,2.48872,0,0,0,.70943,1.879,2.94884,2.94884,0,0,0,2.12288.68178,6.15229,6.15229,0,0,0,2.71593-.68178,7.29907,7.29907,0,0,0,2.49976-2.10628Z" transform="translate(-811.19401 -513.08667)" style="fill: #fff"/>
        </g>
        <g id="Group_100" data-name="Group 100">
          <path id="Path_131" data-name="Path 131" d="M1341.83136,752.20992v-6.3687l4.85556-.92565v7.29435h6.19695v4.06291h-6.19695V766.577a17.73207,17.73207,0,0,0,.15528,2.5885,5.75344,5.75344,0,0,0,.55432,1.79034,4.468,4.468,0,0,0,1.10863,1.31919,10.8413,10.8413,0,0,0,1.746,1.15291v.3492l-5.34881.62079a4.98824,4.98824,0,0,1-1.33023-.89793,4.63507,4.63507,0,0,1-.95335-1.36909,8.64827,8.64827,0,0,1-.55432-2.03422,19.66922,19.66922,0,0,1-.194-2.8989V756.27283h-4.0739v-4.06291Z" transform="translate(-811.19401 -513.08667)" style="fill: #fff"/>
        </g>
        <g id="Group_101" data-name="Group 101">
          <path id="Path_132" data-name="Path 132" d="M1368.17641,741.27392a2.80468,2.80468,0,0,1,2.95985,2.95987,2.83794,2.83794,0,0,1-.81481,2.09518,2.89891,2.89891,0,0,1-5.02184-2.09518,2.95964,2.95964,0,0,1,.79265-2.13954A2.77156,2.77156,0,0,1,1368.17641,741.27392Zm2.42769,10.38727v22.17132H1365.743V752.69216Z" transform="translate(-811.19401 -513.08667)" style="fill: #fff"/>
        </g>
        <g id="Group_102" data-name="Group 102">
          <path id="Path_133" data-name="Path 133" d="M1390.625,774.62515a12.13871,12.13871,0,0,1-4.4342-.80371,9.72285,9.72285,0,0,1-3.53633-2.3169,10.76965,10.76965,0,0,1-2.3169-3.686,13.51108,13.51108,0,0,1-.837-4.9553,12.74648,12.74648,0,0,1,.837-4.77792,10.22767,10.22767,0,0,1,2.33348-3.59728,10.08273,10.08273,0,0,1,3.54749-2.25594,12.288,12.288,0,0,1,4.4342-.77046,13.01436,13.01436,0,0,1,4.40662.72612,9.645,9.645,0,0,1,3.55849,2.18388,10.3819,10.3819,0,0,1,2.3668,3.58067,13.11616,13.11616,0,0,1,.86471,4.911,13.51772,13.51772,0,0,1-.909,5.16592,10.02141,10.02141,0,0,1-6.01951,5.86431A12.31639,12.31639,0,0,1,1390.625,774.62515Zm0-4.02964a5.543,5.543,0,0,0,4.48968-1.98989,8.74705,8.74705,0,0,0,1.66278-5.74237,8.27081,8.27081,0,0,0-1.66278-5.41535,5.54286,5.54286,0,0,0-4.48968-2.012,5.4709,5.4709,0,0,0-4.46753,2.012,8.31411,8.31411,0,0,0-1.63521,5.41535,11.38936,11.38936,0,0,0,.399,3.13726,7.07451,7.07451,0,0,0,1.16953,2.42775,5.49805,5.49805,0,0,0,1.92328,1.59633A5.8144,5.8144,0,0,0,1390.625,770.59551Z" transform="translate(-811.19401 -513.08667)" style="fill: #fff"/>
        </g>
        <g id="Group_103" data-name="Group 103">
          <path id="Path_134" data-name="Path 134" d="M1410.65678,752.21548h4.86656v3.37559a12.78189,12.78189,0,0,1,3.66928-3.04855,8.46452,8.46452,0,0,1,3.92995-.92566,6.92868,6.92868,0,0,1,5.15479,1.85131,7.605,7.605,0,0,1,1.82365,5.54283v14.87141h-4.85556V760.70157a5.3161,5.3161,0,0,0-.95335-3.49753,3.66926,3.66926,0,0,0-2.93769-1.10857,5.42626,5.42626,0,0,0-2.61072.63743,6.0039,6.0039,0,0,0-1.94,1.61851,5.17637,5.17637,0,0,0-1.28591,3.84672v11.68428h-4.86655Z" transform="translate(-811.19401 -513.08667)" style="fill: #fff"/>
        </g>
        <g id="Group_104" data-name="Group 104">
          <path id="Path_135" data-name="Path 135" d="M1440.71006,753.76192a10.73608,10.73608,0,0,1,3.45311-1.63512,14.07319,14.07319,0,0,1,3.84672-.55428,7.98161,7.98161,0,0,1,6.09715,2.05084,8.18108,8.18108,0,0,1,1.92328,5.80889v13.97348l-4.7336,1.01433v-3.04855a14.63166,14.63166,0,0,1-3.32573,2.13954,9.21218,9.21218,0,0,1-4.01859.86467,6.24123,6.24123,0,0,1-4.20144-1.31919,4.70022,4.70022,0,0,1-1.5464-3.76358,5.9529,5.9529,0,0,1,1.2859-3.84673,9.9772,9.9772,0,0,1,3.71377-2.69936,23.53925,23.53925,0,0,1,3.625-1.25822,34.47411,34.47411,0,0,1,4.4342-.8148v-1.21943a3.72974,3.72974,0,0,0-1.01442-2.80467,4.27335,4.27335,0,0,0-3.093-.99771,10.15412,10.15412,0,0,0-3.36447.59307,8.43053,8.43053,0,0,0-2.95427,1.79035h-.13854Zm10.56467,9.50042a30.28269,30.28269,0,0,0-2.99859.60417,13.08658,13.08658,0,0,0-2.655.94228,3.63611,3.63611,0,0,0-2.38337,3.27581,2.48872,2.48872,0,0,0,.70943,1.879,2.95437,2.95437,0,0,0,2.12288.68178,6.1802,6.1802,0,0,0,2.71593-.68178,7.20683,7.20683,0,0,0,2.48876-2.10628Z" transform="translate(-811.19401 -513.08667)" style="fill: #fff"/>
        </g>
        <g id="Group_105" data-name="Group 105">
          <path id="Path_136" data-name="Path 136" d="M1471.00166,773.87132h-4.85556v-33.4676l4.85556-1.01988Z" transform="translate(-811.19401 -513.08667)" style="fill: #fff"/>
        </g>
        <g id="Group_106" data-name="Group 106">
          <path id="Path_137" data-name="Path 137" d="M1529.5561,748.25789h-.13853a11.34543,11.34543,0,0,0-4.15154-3.07627,14.10676,14.10676,0,0,0-5.6648-1.10857,11.97232,11.97232,0,0,0-4.92761.99771,11.85042,11.85042,0,0,0-3.84673,2.716,12.46443,12.46443,0,0,0-2.49976,4.02964,13.76813,13.76813,0,0,0-.88129,4.9553,14.45055,14.45055,0,0,0,.88129,5.14376,11.639,11.639,0,0,0,2.48318,3.9742,10.99617,10.99617,0,0,0,3.80241,2.5885,12.37728,12.37728,0,0,0,4.85556.93673,13.99012,13.99012,0,0,0,5.881-1.24159,14.905,14.905,0,0,0,4.98851-3.88h.133l-.55432,6.76226a17.03777,17.03777,0,0,1-5.08831,2.49982,19.89821,19.89821,0,0,1-5.78675.8536,18.07563,18.07563,0,0,1-6.83433-1.25823,15.29186,15.29186,0,0,1-5.34881-3.57513,16.627,16.627,0,0,1-3.49759-5.59825,20.156,20.156,0,0,1-1.25817-7.28882,18.11507,18.11507,0,0,1,1.25817-6.71792,17.183,17.183,0,0,1,3.53633-5.59271,16.91276,16.91276,0,0,1,5.43745-3.82455,16.72824,16.72824,0,0,1,6.91737-1.41343,22.04332,22.04332,0,0,1,6.03067.75384,15.39871,15.39871,0,0,1,4.7945,2.30028Z" transform="translate(-811.19401 -513.08667)" style="fill: #fff"/>
        </g>
        <g id="Group_107" data-name="Group 107">
          <path id="Path_138" data-name="Path 138" d="M1549.06685,774.62515a12.19422,12.19422,0,0,1-4.43419-.80371,9.6231,9.6231,0,0,1-3.53075-2.3169,10.92874,10.92874,0,0,1-2.32248-3.686,13.7024,13.7024,0,0,1-.837-4.9553,12.91145,12.91145,0,0,1,.837-4.77792,10.24883,10.24883,0,0,1,2.33906-3.59728,10.12749,10.12749,0,0,1,3.53632-2.25594,12.33894,12.33894,0,0,1,4.4342-.77046,12.95368,12.95368,0,0,1,4.39546.72612,9.57911,9.57911,0,0,1,3.55849,2.18388,10.39251,10.39251,0,0,1,2.3668,3.58067,12.94192,12.94192,0,0,1,.86472,4.911,13.52429,13.52429,0,0,1-.909,5.16592,10.03806,10.03806,0,0,1-6.01392,5.86431A12.38789,12.38789,0,0,1,1549.06685,774.62515Zm0-4.02964a5.54294,5.54294,0,0,0,4.4841-1.98989,8.70191,8.70191,0,0,0,1.66278-5.74237,8.22571,8.22571,0,0,0-1.66278-5.41535,5.98594,5.98594,0,0,0-8.94621,0,8.314,8.314,0,0,0-1.6352,5.41535,11.37345,11.37345,0,0,0,.39362,3.13726,7.04912,7.04912,0,0,0,1.16953,2.42775,5.58108,5.58108,0,0,0,1.92327,1.59633A5.85334,5.85334,0,0,0,1549.06685,770.59551Z" transform="translate(-811.19401 -513.08667)" style="fill: #fff"/>
        </g>
        <g id="Group_108" data-name="Group 108">
          <path id="Path_139" data-name="Path 139" d="M1570.24051,768.65552a2.92113,2.92113,0,0,1,2.15062.81479,3.14846,3.14846,0,0,1,0,4.20146,2.98593,2.98593,0,0,1-4.24035-4.20146A2.77122,2.77122,0,0,1,1570.24051,768.65552Z" transform="translate(-811.19401 -513.08667)" style="fill: #fff"/>
        </g>
        <g id="Group_109" data-name="Group 109">
          <path id="Path_140" data-name="Path 140" d="M1587.2625,770.4237a7.20571,7.20571,0,0,1,.55432,2.92107,5.99763,5.99763,0,0,1-1.63521,4.3345,10.65276,10.65276,0,0,1-4.02959,2.5608l-.55431-1.01433a5.22666,5.22666,0,0,0,1.8458-1.63513,4.29488,4.29488,0,0,0,.68169-2.43883,4.46735,4.46735,0,0,0-.66511-2.3169,5.754,5.754,0,0,0-1.76258-1.879l4.01858-2.69935A5.95768,5.95768,0,0,1,1587.2625,770.4237Z" transform="translate(-811.19401 -513.08667)" style="fill: #fff"/>
        </g>
        <g id="Group_110" data-name="Group 110">
          <path id="Path_141" data-name="Path 141" d="M1620.01507,739.74411h5.12705v29.377h16.6285v4.73358h-21.75555Z" transform="translate(-811.19401 -513.08667)" style="fill: #fff"/>
        </g>
        <g id="Group_111" data-name="Group 111">
          <path id="Path_142" data-name="Path 142" d="M1650.69466,752.20992v-6.3687l4.86115-.92565v7.29435h6.19694v4.06291h-6.175V766.577a17.77723,17.77723,0,0,0,.15528,2.5885,5.75317,5.75317,0,0,0,.55432,1.79034,4.434,4.434,0,0,0,1.10863,1.31919,10.77011,10.77011,0,0,0,1.746,1.15291v.3492l-5.34881.62079A5.01577,5.01577,0,0,1,1652.463,773.5a4.61686,4.61686,0,0,1-.95335-1.36909,8.27109,8.27109,0,0,1-.55432-2.03422,18.3698,18.3698,0,0,1-.1996-2.8989V756.27283h-4.06291v-4.06291Z" transform="translate(-811.19401 -513.08667)" style="fill: #fff"/>
        </g>
        <g id="Group_112" data-name="Group 112">
          <path id="Path_143" data-name="Path 143" d="M1684.22331,772.35814a9.53868,9.53868,0,0,1-3.13729,1.70164,11.46861,11.46861,0,0,1-3.58065.55428,10.20976,10.20976,0,0,1-4.27908-.86468,9.2244,9.2244,0,0,1-3.21477-2.36678,10.49842,10.49842,0,0,1-1.98434-3.51414,13.08044,13.08044,0,0,1-.68169-4.30679,12.93464,12.93464,0,0,1,.88129-4.86659,11.87328,11.87328,0,0,1,2.42769-3.82455,11.15194,11.15194,0,0,1,8.13681-3.41439,10.753,10.753,0,0,1,4.98851,1.14737V740.35384l4.86656-.97v34.04407l-4.50626,1.14737Zm-5.34881-1.76263a9.36211,9.36211,0,0,0,2.69378-.37692,5.3373,5.3373,0,0,0,2.21709-1.25823V756.57769a5.85325,5.85325,0,0,0-1.91228-.837,10.09371,10.09371,0,0,0-2.3668-.26052,7.31069,7.31069,0,0,0-2.86005.55428,6.37972,6.37972,0,0,0-2.24484,1.59078,7.3686,7.3686,0,0,0-1.48551,2.51644,9.64927,9.64927,0,0,0-.55432,3.29245,7.64917,7.64917,0,0,0,1.70169,5.19918,6.00841,6.00841,0,0,0,4.83881,1.96218Z" transform="translate(-811.19401 -513.08667)" style="fill: #fff"/>
        </g>
        <g id="Group_113" data-name="Group 113">
          <path id="Path_144" data-name="Path 144" d="M1701.1842,768.65552a2.89908,2.89908,0,0,1,2.13945.81479,2.84367,2.84367,0,0,1,.8204,2.10628,2.92018,2.92018,0,1,1-5.044-2.10628A2.77146,2.77146,0,0,1,1701.1842,768.65552Z" transform="translate(-811.19401 -513.08667)" style="fill: #fff"/>
        </g>
      </g>
      <g id="Group_130" data-name="Group 130">
        <g id="Group_127" data-name="Group 127">
          <g id="Group_116" data-name="Group 116">
            <g id="Group_115" data-name="Group 115">
              <path id="Path_145" data-name="Path 145" d="M1223.98541,695.76173a57.45144,57.45144,0,0,1-36.21127,12.74851,53.89278,53.89278,0,0,1-20.054-3.63609,44.5649,44.5649,0,0,1-15.70289-10.38727,47.26956,47.26956,0,0,1-10.18779-16.15736,61.52592,61.52592,0,0,1-.194-41.1389,48.83381,48.83381,0,0,1,9.977-16.67839,48.31733,48.31733,0,0,1,15.90231-11.35172,51.19343,51.19343,0,0,1,21.28446-4.21809,60.82152,60.82152,0,0,1,17.25487,2.33353,53.92183,53.92183,0,0,1,14.27827,6.49065l-1.66278,17.38787h-.39362a37.54132,37.54132,0,0,0-12.992-9.02925,41.189,41.189,0,0,0-16.22388-3.18158,36.02843,36.02843,0,0,0-14.66073,2.85455,31.833,31.833,0,0,0-11.02476,7.91517,35.32464,35.32464,0,0,0-7.00619,12.06674,45.69641,45.69641,0,0,0-2.461,15.31485,46.51593,46.51593,0,0,0,2.461,15.56982,33.25655,33.25655,0,0,0,7.00619,11.87274,31.1552,31.1552,0,0,0,10.89722,7.53271,35.96735,35.96735,0,0,0,14.02336,2.655,34.63147,34.63147,0,0,0,11.54018-1.746,25.77889,25.77889,0,0,0,8.56916-4.98855V659.944h15.56976Z" transform="translate(-811.19401 -513.08667)" style="fill: #fff"/>
            </g>
          </g>
          <g id="Group_118" data-name="Group 118">
            <g id="Group_117" data-name="Group 117">
              <path id="Path_146" data-name="Path 146" d="M1244.10023,606.6053h27.3816a41.477,41.477,0,0,1,26.345,7.39967,28.37027,28.37027,0,0,1,3.1373,38.80537,37.0038,37.0038,0,0,1-17.26587,10.38172L1319.261,706.792h-19.07294l-31.92676-40.87284q-1.43028.133-2.9876.133h-6.09715v40.74536h-15.05435Zm15.05435,49.05406h2.2171q30.23582,0,30.23066-19.07289a15.03748,15.03748,0,0,0-5.64263-12.59331,26.01255,26.01255,0,0,0-16.28478-4.43426h-10.53134Z" transform="translate(-811.19401 -513.08667)" style="fill: #fff"/>
            </g>
          </g>
          <g id="Group_120" data-name="Group 120">
            <g id="Group_119" data-name="Group 119">
              <path id="Path_147" data-name="Path 147" d="M1504.04241,631.65335H1503.66a33.16194,33.16194,0,0,0-12.19429-9.02373,41.20518,41.20518,0,0,0-16.6285-3.18158,35.13585,35.13585,0,0,0-14.47787,2.92661,34.36524,34.36524,0,0,0-11.29068,7.97613,35.8783,35.8783,0,0,0-7.32757,11.81178,40.12408,40.12408,0,0,0-2.594,14.5333,42.191,42.191,0,0,0,2.594,15.1264,34.17116,34.17116,0,0,0,7.26668,11.6732,32.84685,32.84685,0,0,0,11.15772,7.59367,36.505,36.505,0,0,0,14.27827,2.72707,40.76248,40.76248,0,0,0,17.25487-3.63608,43.6714,43.6714,0,0,0,14.67189-11.41824h.38246l-1.66278,19.86a50.05757,50.05757,0,0,1-14.92123,7.33316,58.051,58.051,0,0,1-17.00537,2.53308,53.00613,53.00613,0,0,1-20.04286-3.70261,44.769,44.769,0,0,1-15.70847-10.53139,48.46625,48.46625,0,0,1-10.24869-16.41786,59.19132,59.19132,0,0,1-3.697-21.4175,53.12328,53.12328,0,0,1,3.697-19.7214,50.94057,50.94057,0,0,1,10.38165-16.41786,49.26456,49.26456,0,0,1,36.2779-15.37582,64.73426,64.73426,0,0,1,17.73713,2.21713,45.7333,45.7333,0,0,1,14.08426,6.75671Z" transform="translate(-811.19401 -513.08667)" style="fill: #fff"/>
            </g>
          </g>
          <g id="Group_122" data-name="Group 122">
            <g id="Group_121" data-name="Group 121">
              <path id="Path_148" data-name="Path 148" d="M1535.58107,648.39825h35.17486v12.59331h-35.17486v32.57522h41.14446v13.23628H1520.5323V606.6053h55.5337v13.36931h-40.4626Z" transform="translate(-811.19401 -513.08667)" style="fill: #fff"/>
            </g>
          </g>
          <g id="Group_124" data-name="Group 124">
            <g id="Group_123" data-name="Group 123">
              <path id="Path_149" data-name="Path 149" d="M1601.707,692.64113a33.16278,33.16278,0,0,0,13.30276,2.60514,19.39986,19.39986,0,0,0,12.78177-3.83565,12.83715,12.83715,0,0,0,4.60606-10.44269,15.351,15.351,0,0,0-.96993-5.54283,15.95764,15.95764,0,0,0-3.32573-5.06059,34.58755,34.58755,0,0,0-6.23011-5.12712q-3.88029-2.58294-9.73327-5.70357a93.56615,93.56615,0,0,1-10.89723-6.74562,34.20107,34.20107,0,0,1-7.07824-6.75671,22.79084,22.79084,0,0,1-3.82457-7.59368,33.312,33.312,0,0,1-1.16394-9.14567,22.87523,22.87523,0,0,1,7.90963-17.58186,27.49853,27.49853,0,0,1,9.02368-5.1881,34.14927,34.14927,0,0,1,11.61223-1.88456,54.93467,54.93467,0,0,1,22.842,4.80564v16.87238a53.21232,53.21232,0,0,0-11.64-6.36317,29.17751,29.17751,0,0,0-10.1878-1.95108,14.88247,14.88247,0,0,0-10.71437,3.4421,11.17411,11.17411,0,0,0-3.56407,8.36968,15.78759,15.78759,0,0,0,.77608,5.12158,12.28793,12.28793,0,0,0,2.91553,4.48415,31.82245,31.82245,0,0,0,6.03609,4.60609q3.88005,2.4,9.977,5.51512a81.71909,81.71909,0,0,1,11.02477,6.75671,34.01117,34.01117,0,0,1,7.33316,7.20569,25.88312,25.88312,0,0,1,4.02958,8.10917,33.72184,33.72184,0,0,1,1.23042,9.35076,26.4679,26.4679,0,0,1-2.4666,11.63993,25.30241,25.30241,0,0,1-6.94511,8.76323,31.70526,31.70526,0,0,1-10.77527,5.57609,46.42139,46.42139,0,0,1-13.81276,1.95108,54.83511,54.83511,0,0,1-12.79293-1.42451,35.04709,35.04709,0,0,1-10.44271-4.27906l-1.55757-18.5574h.38246A47.48965,47.48965,0,0,0,1601.707,692.64113Z" transform="translate(-811.19401 -513.08667)" style="fill: #fff"/>
            </g>
          </g>
          <g id="Group_126" data-name="Group 126">
            <g id="Group_125" data-name="Group 125">
              <path id="Path_150" data-name="Path 150" d="M1671.91269,692.64113a33.19566,33.19566,0,0,0,13.30276,2.60514,19.39988,19.39988,0,0,0,12.78177-3.83565,12.84273,12.84273,0,0,0,4.61164-10.44269,15.15346,15.15346,0,0,0-.9811-5.54283,15.9335,15.9335,0,0,0-3.32573-5.06059,34.773,34.773,0,0,0-6.21911-5.12712q-3.88-2.58294-9.73328-5.70357a93.71128,93.71128,0,0,1-10.9028-6.74562,33.9455,33.9455,0,0,1-7.06708-6.75671,23.001,23.001,0,0,1-3.83556-7.59368,33.33183,33.33183,0,0,1-1.164-9.14567,23.02577,23.02577,0,0,1,2.073-9.79419,23.27882,23.27882,0,0,1,5.84765-7.76,27.35875,27.35875,0,0,1,9.01826-5.1881,34.14933,34.14933,0,0,1,11.61224-1.88456,55.0011,55.0011,0,0,1,22.8476,4.80564v16.87238a53.41236,53.41236,0,0,0-11.64-6.36317,29.17745,29.17745,0,0,0-10.18779-1.95108,14.84389,14.84389,0,0,0-10.70321,3.4421,11.15187,11.15187,0,0,0-3.57506,8.36968,15.55373,15.55373,0,0,0,.78707,5.12158,12.06689,12.06689,0,0,0,2.91554,4.48415,31.43848,31.43848,0,0,0,6.03067,4.60609q3.8803,2.4,9.977,5.51512a81.76214,81.76214,0,0,1,11.02476,6.75671,34.05548,34.05548,0,0,1,7.33874,7.20568,25.84154,25.84154,0,0,1,4.01859,8.10917,33.74751,33.74751,0,0,1,1.23042,9.35075,26.46791,26.46791,0,0,1-2.4666,11.63994,25.30233,25.30233,0,0,1-6.94512,8.76323,31.68238,31.68238,0,0,1-10.7641,5.57609,46.52643,46.52643,0,0,1-13.82375,1.95108,54.70845,54.70845,0,0,1-12.78177-1.42451,35.01354,35.01354,0,0,1-10.44829-4.27906l-1.55757-18.5574h.38246A47.61885,47.61885,0,0,0,1671.91269,692.64113Z" transform="translate(-811.19401 -513.08667)" style="fill: #fff"/>
            </g>
          </g>
        </g>
        <g id="Group_129" data-name="Group 129">
          <g id="Group_128" data-name="Group 128">
            <path id="Path_151" data-name="Path 151" d="M1380.62569,605.30273l-11.41822,1.818L1324.172,706.792h18.00862l16.87242-42.04791,15.47554-38.79982,14.54435,38.79982,16.35142,42.04791h18.03078Z" transform="translate(-811.19401 -513.08667)" style="fill: #fff"/>
          </g>
        </g>
      </g>
    </g>
  </g>
  <g id="Group_250-2" data-name="Group 250">
    <g id="Group_92-2" data-name="Group 92">
      <g id="Group_88-2" data-name="Group 88">
        <g id="Group_85-2" data-name="Group 85">
          <g id="Group_84-2" data-name="Group 84">
            <path id="Path_121-2" data-name="Path 121" d="M918.50873,544.33158,811.194,802.173l233.392-277.03625Z" transform="translate(-811.19401 -513.08667)" style="fill: #87b0ae"/>
          </g>
        </g>
        <g id="Group_87-2" data-name="Group 87">
          <g id="Group_86-2" data-name="Group 86">
            <path id="Path_122-2" data-name="Path 122" d="M811.194,802.173l130.506-19.95418L976.437,695.82826Z" transform="translate(-811.19401 -513.08667)" style="fill: #fcbd37"/>
          </g>
        </g>
      </g>
      <g id="Group_91-2" data-name="Group 91">
        <g id="Group_90-2" data-name="Group 90">
          <g id="Group_89-2" data-name="Group 89">
            <path id="Path_123-2" data-name="Path 123" d="M1044.586,525.13676l-15.76936,282.60683h.632L1126.559,513.08667Z" transform="translate(-811.19401 -513.08667)" style="fill: #fff"/>
          </g>
        </g>
      </g>
    </g>
    <g id="Group_131-2" data-name="Group 131">
      <g id="Group_114-2" data-name="Group 114">
        <g id="Group_93-2" data-name="Group 93">
          <path id="Path_124-2" data-name="Path 124" d="M1162.62067,741.27392a2.87125,2.87125,0,0,1,2.13946.82033,2.90441,2.90441,0,0,1,.8204,2.13954,2.81025,2.81025,0,0,1-2.69479,2.92108q-.11316.00456-.22633,0a2.90449,2.90449,0,0,1-2.12288-.79264,2.87072,2.87072,0,0,1-.79265-2.1229,2.9262,2.9262,0,0,1,.79265-2.13954A2.77149,2.77149,0,0,1,1162.62067,741.27392Zm2.4277,10.38727v22.17132h-4.86655V752.69216Z" transform="translate(-811.19401 -513.08667)" style="fill: #fff"/>
        </g>
        <g id="Group_94-2" data-name="Group 94">
          <path id="Path_125-2" data-name="Path 125" d="M1177.33128,752.21548h4.86656v3.37559a12.78189,12.78189,0,0,1,3.66928-3.04855,8.46452,8.46452,0,0,1,3.92995-.92566,6.92868,6.92868,0,0,1,5.15479,1.85131,7.56648,7.56648,0,0,1,1.82365,5.54283v14.87141H1191.92V760.70157a5.27121,5.27121,0,0,0-.95335-3.49753,3.67482,3.67482,0,0,0-2.93769-1.10857,5.44814,5.44814,0,0,0-2.61072.63743,6.0039,6.0039,0,0,0-1.94,1.61851,5.17637,5.17637,0,0,0-1.28591,3.84672v11.68428h-4.86655Z" transform="translate(-811.19401 -513.08667)" style="fill: #fff"/>
        </g>
        <g id="Group_95-2" data-name="Group 95">
          <path id="Path_126-2" data-name="Path 126" d="M1209.9564,752.20992v-6.3687l4.86655-.92565v7.29435h6.18579v4.06291H1214.823V766.577a16.62136,16.62136,0,0,0,.15529,2.5885,5.32274,5.32274,0,0,0,.55431,1.79034,4.21875,4.21875,0,0,0,1.10864,1.31919,10.73438,10.73438,0,0,0,1.74042,1.15291v.3492l-5.34881.62079a4.83394,4.83394,0,0,1-1.31923-.89793,4.46864,4.46864,0,0,1-.95335-1.36909,7.86814,7.86814,0,0,1-.55432-2.03422,18.35077,18.35077,0,0,1-.1996-2.8989V756.27283h-4.06291v-4.06291Z" transform="translate(-811.19401 -513.08667)" style="fill: #fff"/>
        </g>
        <g id="Group_96-2" data-name="Group 96">
          <path id="Path_127-2" data-name="Path 127" d="M1240.331,764.23788c-.96993.28821-2.134.55427-3.46985.81479s-2.58856.45451-3.73035.59307a6.2802,6.2802,0,0,0,2.02866,3.47535,6.38518,6.38518,0,0,0,4.33457,1.34691,9.33931,9.33931,0,0,0,4.0629-.909,9.52848,9.52848,0,0,0,3.23152-2.48874h.13295l-.30481,5.07724a10.99152,10.99152,0,0,1-3.381,1.818,12.948,12.948,0,0,1-4.09623.66513,11.56818,11.56818,0,0,1-4.63938-.86467,9.64485,9.64485,0,0,1-3.29241-2.2781,9.10124,9.10124,0,0,1-1.94-3.29245,11.965,11.965,0,0,1-.64854-3.88,13.13205,13.13205,0,0,1,.89246-4.75576,13.26548,13.26548,0,0,1,2.47218-4.11278,12.47274,12.47274,0,0,1,3.80241-2.89335,10.73094,10.73094,0,0,1,4.85556-1.10858,7.32213,7.32213,0,0,1,5.11047,1.66285,5.3321,5.3321,0,0,1,1.79033,4.10724,5.95277,5.95277,0,0,1-1.66279,4.24581A11.9615,11.9615,0,0,1,1240.331,764.23788Zm-.837-9.24544a4.73348,4.73348,0,0,0-2.4277.66513,7.233,7.233,0,0,0-2.03424,1.76263,9.64635,9.64635,0,0,0-1.44119,2.56633,10.5337,10.5337,0,0,0-.63737,3.04856q1.41327-.22173,2.98759-.55428c1.042-.23834,1.98993-.48223,2.84906-.75383a6.71178,6.71178,0,0,0,2.95985-1.60743,3.19811,3.19811,0,0,0,.92561-2.21714,2.71047,2.71047,0,0,0-.837-2.09518A3.32581,3.32581,0,0,0,1239.494,754.99244Z" transform="translate(-811.19401 -513.08667)" style="fill: #fff"/>
        </g>
        <g id="Group_97-2" data-name="Group 97">
          <path id="Path_128-2" data-name="Path 128" d="M1269.50853,757.02665a2.65982,2.65982,0,0,0-.52657-.04434h-.55432a12.32782,12.32782,0,0,0-2.52749.24388,9.37161,9.37161,0,0,0-2.2171.72611,4.224,4.224,0,0,0-1.879,1.52983,4.43344,4.43344,0,0,0-.46568,2.18388v12.19423h-4.86115V752.21547h4.86115v3.57513a12.0448,12.0448,0,0,1,2.89337-2.80468,6.88967,6.88967,0,0,1,3.95752-1.10857h.69286a4.30557,4.30557,0,0,1,.593.061Z" transform="translate(-811.19401 -513.08667)" style="fill: #fff"/>
        </g>
        <g id="Group_98-2" data-name="Group 98">
          <path id="Path_129-2" data-name="Path 129" d="M1280.66072,752.21548h4.86655v3.37559a12.7481,12.7481,0,0,1,3.65829-3.04855,8.49757,8.49757,0,0,1,3.941-.92566,6.88959,6.88959,0,0,1,5.14921,1.85131,7.56629,7.56629,0,0,1,1.83464,5.54283v14.87141h-4.86656V760.70157a5.32121,5.32121,0,0,0-.94235-3.49753,3.69152,3.69152,0,0,0-2.94328-1.10857,5.39855,5.39855,0,0,0-2.60514.63743,6.136,6.136,0,0,0-1.951,1.61851,6.34382,6.34382,0,0,0-.96992,1.63512,6.23145,6.23145,0,0,0-.30482,2.21714v11.67874h-4.86655Z" transform="translate(-811.19401 -513.08667)" style="fill: #fff"/>
        </g>
        <g id="Group_99-2" data-name="Group 99">
          <path id="Path_130-2" data-name="Path 130" d="M1311.63976,753.76192a10.69159,10.69159,0,0,1,3.44212-1.63512,14.08987,14.08987,0,0,1,3.88-.55428,7.97051,7.97051,0,0,1,6.09715,2.05084,8.18108,8.18108,0,0,1,1.92328,5.80889v13.97348l-4.728,1.01433v-3.04855a14.65392,14.65392,0,0,1-3.32573,2.13954,9.19021,9.19021,0,0,1-4.01859.86467,6.25777,6.25777,0,0,1-4.20144-1.31919,4.70588,4.70588,0,0,1-1.5464-3.76358,5.95291,5.95291,0,0,1,1.28591-3.84673,10.10435,10.10435,0,0,1,3.71377-2.69936,23.52392,23.52392,0,0,1,3.625-1.25822,34.3675,34.3675,0,0,1,4.46194-.8148v-1.21943a3.73569,3.73569,0,0,0-1.01983-2.80467,4.23455,4.23455,0,0,0-3.08181-.99771,10.07163,10.07163,0,0,0-3.36447.59307,8.4682,8.4682,0,0,0-2.95985,1.79035h-.133Zm10.56467,9.50042a30.032,30.032,0,0,0-3.00417.60417,13.10537,13.10537,0,0,0-2.655.94228,3.63614,3.63614,0,0,0-2.38337,3.27581,2.48872,2.48872,0,0,0,.70943,1.879,2.94884,2.94884,0,0,0,2.12288.68178,6.15229,6.15229,0,0,0,2.71593-.68178,7.29907,7.29907,0,0,0,2.49976-2.10628Z" transform="translate(-811.19401 -513.08667)" style="fill: #fff"/>
        </g>
        <g id="Group_100-2" data-name="Group 100">
          <path id="Path_131-2" data-name="Path 131" d="M1341.83136,752.20992v-6.3687l4.85556-.92565v7.29435h6.19695v4.06291h-6.19695V766.577a17.73207,17.73207,0,0,0,.15528,2.5885,5.75344,5.75344,0,0,0,.55432,1.79034,4.468,4.468,0,0,0,1.10863,1.31919,10.8413,10.8413,0,0,0,1.746,1.15291v.3492l-5.34881.62079a4.98824,4.98824,0,0,1-1.33023-.89793,4.63507,4.63507,0,0,1-.95335-1.36909,8.64827,8.64827,0,0,1-.55432-2.03422,19.66922,19.66922,0,0,1-.194-2.8989V756.27283h-4.0739v-4.06291Z" transform="translate(-811.19401 -513.08667)" style="fill: #fff"/>
        </g>
        <g id="Group_101-2" data-name="Group 101">
          <path id="Path_132-2" data-name="Path 132" d="M1368.17641,741.27392a2.80468,2.80468,0,0,1,2.95985,2.95987,2.83794,2.83794,0,0,1-.81481,2.09518,2.89891,2.89891,0,0,1-5.02184-2.09518,2.95964,2.95964,0,0,1,.79265-2.13954A2.77156,2.77156,0,0,1,1368.17641,741.27392Zm2.42769,10.38727v22.17132H1365.743V752.69216Z" transform="translate(-811.19401 -513.08667)" style="fill: #fff"/>
        </g>
        <g id="Group_102-2" data-name="Group 102">
          <path id="Path_133-2" data-name="Path 133" d="M1390.625,774.62515a12.13871,12.13871,0,0,1-4.4342-.80371,9.72285,9.72285,0,0,1-3.53633-2.3169,10.76965,10.76965,0,0,1-2.3169-3.686,13.51108,13.51108,0,0,1-.837-4.9553,12.74648,12.74648,0,0,1,.837-4.77792,10.22767,10.22767,0,0,1,2.33348-3.59728,10.08273,10.08273,0,0,1,3.54749-2.25594,12.288,12.288,0,0,1,4.4342-.77046,13.01436,13.01436,0,0,1,4.40662.72612,9.645,9.645,0,0,1,3.55849,2.18388,10.3819,10.3819,0,0,1,2.3668,3.58067,13.11616,13.11616,0,0,1,.86471,4.911,13.51772,13.51772,0,0,1-.909,5.16592,10.02141,10.02141,0,0,1-6.01951,5.86431A12.31639,12.31639,0,0,1,1390.625,774.62515Zm0-4.02964a5.543,5.543,0,0,0,4.48968-1.98989,8.74705,8.74705,0,0,0,1.66278-5.74237,8.27081,8.27081,0,0,0-1.66278-5.41535,5.54286,5.54286,0,0,0-4.48968-2.012,5.4709,5.4709,0,0,0-4.46753,2.012,8.31411,8.31411,0,0,0-1.63521,5.41535,11.38936,11.38936,0,0,0,.399,3.13726,7.07451,7.07451,0,0,0,1.16953,2.42775,5.49805,5.49805,0,0,0,1.92328,1.59633A5.8144,5.8144,0,0,0,1390.625,770.59551Z" transform="translate(-811.19401 -513.08667)" style="fill: #fff"/>
        </g>
        <g id="Group_103-2" data-name="Group 103">
          <path id="Path_134-2" data-name="Path 134" d="M1410.65678,752.21548h4.86656v3.37559a12.78189,12.78189,0,0,1,3.66928-3.04855,8.46452,8.46452,0,0,1,3.92995-.92566,6.92868,6.92868,0,0,1,5.15479,1.85131,7.605,7.605,0,0,1,1.82365,5.54283v14.87141h-4.85556V760.70157a5.3161,5.3161,0,0,0-.95335-3.49753,3.66926,3.66926,0,0,0-2.93769-1.10857,5.42626,5.42626,0,0,0-2.61072.63743,6.0039,6.0039,0,0,0-1.94,1.61851,5.17637,5.17637,0,0,0-1.28591,3.84672v11.68428h-4.86655Z" transform="translate(-811.19401 -513.08667)" style="fill: #fff"/>
        </g>
        <g id="Group_104-2" data-name="Group 104">
          <path id="Path_135-2" data-name="Path 135" d="M1440.71006,753.76192a10.73608,10.73608,0,0,1,3.45311-1.63512,14.07319,14.07319,0,0,1,3.84672-.55428,7.98161,7.98161,0,0,1,6.09715,2.05084,8.18108,8.18108,0,0,1,1.92328,5.80889v13.97348l-4.7336,1.01433v-3.04855a14.63166,14.63166,0,0,1-3.32573,2.13954,9.21218,9.21218,0,0,1-4.01859.86467,6.24123,6.24123,0,0,1-4.20144-1.31919,4.70022,4.70022,0,0,1-1.5464-3.76358,5.9529,5.9529,0,0,1,1.2859-3.84673,9.9772,9.9772,0,0,1,3.71377-2.69936,23.53925,23.53925,0,0,1,3.625-1.25822,34.47411,34.47411,0,0,1,4.4342-.8148v-1.21943a3.72974,3.72974,0,0,0-1.01442-2.80467,4.27335,4.27335,0,0,0-3.093-.99771,10.15412,10.15412,0,0,0-3.36447.59307,8.43053,8.43053,0,0,0-2.95427,1.79035h-.13854Zm10.56467,9.50042a30.28269,30.28269,0,0,0-2.99859.60417,13.08658,13.08658,0,0,0-2.655.94228,3.63611,3.63611,0,0,0-2.38337,3.27581,2.48872,2.48872,0,0,0,.70943,1.879,2.95437,2.95437,0,0,0,2.12288.68178,6.1802,6.1802,0,0,0,2.71593-.68178,7.20683,7.20683,0,0,0,2.48876-2.10628Z" transform="translate(-811.19401 -513.08667)" style="fill: #fff"/>
        </g>
        <g id="Group_105-2" data-name="Group 105">
          <path id="Path_136-2" data-name="Path 136" d="M1471.00166,773.87132h-4.85556v-33.4676l4.85556-1.01988Z" transform="translate(-811.19401 -513.08667)" style="fill: #fff"/>
        </g>
        <g id="Group_106-2" data-name="Group 106">
          <path id="Path_137-2" data-name="Path 137" d="M1529.5561,748.25789h-.13853a11.34543,11.34543,0,0,0-4.15154-3.07627,14.10676,14.10676,0,0,0-5.6648-1.10857,11.97232,11.97232,0,0,0-4.92761.99771,11.85042,11.85042,0,0,0-3.84673,2.716,12.46443,12.46443,0,0,0-2.49976,4.02964,13.76813,13.76813,0,0,0-.88129,4.9553,14.45055,14.45055,0,0,0,.88129,5.14376,11.639,11.639,0,0,0,2.48318,3.9742,10.99617,10.99617,0,0,0,3.80241,2.5885,12.37728,12.37728,0,0,0,4.85556.93673,13.99012,13.99012,0,0,0,5.881-1.24159,14.905,14.905,0,0,0,4.98851-3.88h.133l-.55432,6.76226a17.03777,17.03777,0,0,1-5.08831,2.49982,19.89821,19.89821,0,0,1-5.78675.8536,18.07563,18.07563,0,0,1-6.83433-1.25823,15.29186,15.29186,0,0,1-5.34881-3.57513,16.627,16.627,0,0,1-3.49759-5.59825,20.156,20.156,0,0,1-1.25817-7.28882,18.11507,18.11507,0,0,1,1.25817-6.71792,17.183,17.183,0,0,1,3.53633-5.59271,16.91276,16.91276,0,0,1,5.43745-3.82455,16.72824,16.72824,0,0,1,6.91737-1.41343,22.04332,22.04332,0,0,1,6.03067.75384,15.39871,15.39871,0,0,1,4.7945,2.30028Z" transform="translate(-811.19401 -513.08667)" style="fill: #fff"/>
        </g>
        <g id="Group_107-2" data-name="Group 107">
          <path id="Path_138-2" data-name="Path 138" d="M1549.06685,774.62515a12.19422,12.19422,0,0,1-4.43419-.80371,9.6231,9.6231,0,0,1-3.53075-2.3169,10.92874,10.92874,0,0,1-2.32248-3.686,13.7024,13.7024,0,0,1-.837-4.9553,12.91145,12.91145,0,0,1,.837-4.77792,10.24883,10.24883,0,0,1,2.33906-3.59728,10.12749,10.12749,0,0,1,3.53632-2.25594,12.33894,12.33894,0,0,1,4.4342-.77046,12.95368,12.95368,0,0,1,4.39546.72612,9.57911,9.57911,0,0,1,3.55849,2.18388,10.39251,10.39251,0,0,1,2.3668,3.58067,12.94192,12.94192,0,0,1,.86472,4.911,13.52429,13.52429,0,0,1-.909,5.16592,10.03806,10.03806,0,0,1-6.01392,5.86431A12.38789,12.38789,0,0,1,1549.06685,774.62515Zm0-4.02964a5.54294,5.54294,0,0,0,4.4841-1.98989,8.70191,8.70191,0,0,0,1.66278-5.74237,8.22571,8.22571,0,0,0-1.66278-5.41535,5.98594,5.98594,0,0,0-8.94621,0,8.314,8.314,0,0,0-1.6352,5.41535,11.37345,11.37345,0,0,0,.39362,3.13726,7.04912,7.04912,0,0,0,1.16953,2.42775,5.58108,5.58108,0,0,0,1.92327,1.59633A5.85334,5.85334,0,0,0,1549.06685,770.59551Z" transform="translate(-811.19401 -513.08667)" style="fill: #fff"/>
        </g>
        <g id="Group_108-2" data-name="Group 108">
          <path id="Path_139-2" data-name="Path 139" d="M1570.24051,768.65552a2.92113,2.92113,0,0,1,2.15062.81479,3.14846,3.14846,0,0,1,0,4.20146,2.98593,2.98593,0,0,1-4.24035-4.20146A2.77122,2.77122,0,0,1,1570.24051,768.65552Z" transform="translate(-811.19401 -513.08667)" style="fill: #fff"/>
        </g>
        <g id="Group_109-2" data-name="Group 109">
          <path id="Path_140-2" data-name="Path 140" d="M1587.2625,770.4237a7.20571,7.20571,0,0,1,.55432,2.92107,5.99763,5.99763,0,0,1-1.63521,4.3345,10.65276,10.65276,0,0,1-4.02959,2.5608l-.55431-1.01433a5.22666,5.22666,0,0,0,1.8458-1.63513,4.29488,4.29488,0,0,0,.68169-2.43883,4.46735,4.46735,0,0,0-.66511-2.3169,5.754,5.754,0,0,0-1.76258-1.879l4.01858-2.69935A5.95768,5.95768,0,0,1,1587.2625,770.4237Z" transform="translate(-811.19401 -513.08667)" style="fill: #fff"/>
        </g>
        <g id="Group_110-2" data-name="Group 110">
          <path id="Path_141-2" data-name="Path 141" d="M1620.01507,739.74411h5.12705v29.377h16.6285v4.73358h-21.75555Z" transform="translate(-811.19401 -513.08667)" style="fill: #fff"/>
        </g>
        <g id="Group_111-2" data-name="Group 111">
          <path id="Path_142-2" data-name="Path 142" d="M1650.69466,752.20992v-6.3687l4.86115-.92565v7.29435h6.19694v4.06291h-6.175V766.577a17.77723,17.77723,0,0,0,.15528,2.5885,5.75317,5.75317,0,0,0,.55432,1.79034,4.434,4.434,0,0,0,1.10863,1.31919,10.77011,10.77011,0,0,0,1.746,1.15291v.3492l-5.34881.62079A5.01577,5.01577,0,0,1,1652.463,773.5a4.61686,4.61686,0,0,1-.95335-1.36909,8.27109,8.27109,0,0,1-.55432-2.03422,18.3698,18.3698,0,0,1-.1996-2.8989V756.27283h-4.06291v-4.06291Z" transform="translate(-811.19401 -513.08667)" style="fill: #fff"/>
        </g>
        <g id="Group_112-2" data-name="Group 112">
          <path id="Path_143-2" data-name="Path 143" d="M1684.22331,772.35814a9.53868,9.53868,0,0,1-3.13729,1.70164,11.46861,11.46861,0,0,1-3.58065.55428,10.20976,10.20976,0,0,1-4.27908-.86468,9.2244,9.2244,0,0,1-3.21477-2.36678,10.49842,10.49842,0,0,1-1.98434-3.51414,13.08044,13.08044,0,0,1-.68169-4.30679,12.93464,12.93464,0,0,1,.88129-4.86659,11.87328,11.87328,0,0,1,2.42769-3.82455,11.15194,11.15194,0,0,1,8.13681-3.41439,10.753,10.753,0,0,1,4.98851,1.14737V740.35384l4.86656-.97v34.04407l-4.50626,1.14737Zm-5.34881-1.76263a9.36211,9.36211,0,0,0,2.69378-.37692,5.3373,5.3373,0,0,0,2.21709-1.25823V756.57769a5.85325,5.85325,0,0,0-1.91228-.837,10.09371,10.09371,0,0,0-2.3668-.26052,7.31069,7.31069,0,0,0-2.86005.55428,6.37972,6.37972,0,0,0-2.24484,1.59078,7.3686,7.3686,0,0,0-1.48551,2.51644,9.64927,9.64927,0,0,0-.55432,3.29245,7.64917,7.64917,0,0,0,1.70169,5.19918,6.00841,6.00841,0,0,0,4.83881,1.96218Z" transform="translate(-811.19401 -513.08667)" style="fill: #fff"/>
        </g>
        <g id="Group_113-2" data-name="Group 113">
          <path id="Path_144-2" data-name="Path 144" d="M1701.1842,768.65552a2.89908,2.89908,0,0,1,2.13945.81479,2.84367,2.84367,0,0,1,.8204,2.10628,2.92018,2.92018,0,1,1-5.044-2.10628A2.77146,2.77146,0,0,1,1701.1842,768.65552Z" transform="translate(-811.19401 -513.08667)" style="fill: #fff"/>
        </g>
      </g>
      <g id="Group_130-2" data-name="Group 130">
        <g id="Group_127-2" data-name="Group 127">
          <g id="Group_116-2" data-name="Group 116">
            <g id="Group_115-2" data-name="Group 115">
              <path id="Path_145-2" data-name="Path 145" d="M1223.98541,695.76173a57.45144,57.45144,0,0,1-36.21127,12.74851,53.89278,53.89278,0,0,1-20.054-3.63609,44.5649,44.5649,0,0,1-15.70289-10.38727,47.26956,47.26956,0,0,1-10.18779-16.15736,61.52592,61.52592,0,0,1-.194-41.1389,48.83381,48.83381,0,0,1,9.977-16.67839,48.31733,48.31733,0,0,1,15.90231-11.35172,51.19343,51.19343,0,0,1,21.28446-4.21809,60.82152,60.82152,0,0,1,17.25487,2.33353,53.92183,53.92183,0,0,1,14.27827,6.49065l-1.66278,17.38787h-.39362a37.54132,37.54132,0,0,0-12.992-9.02925,41.189,41.189,0,0,0-16.22388-3.18158,36.02843,36.02843,0,0,0-14.66073,2.85455,31.833,31.833,0,0,0-11.02476,7.91517,35.32464,35.32464,0,0,0-7.00619,12.06674,45.69641,45.69641,0,0,0-2.461,15.31485,46.51593,46.51593,0,0,0,2.461,15.56982,33.25655,33.25655,0,0,0,7.00619,11.87274,31.1552,31.1552,0,0,0,10.89722,7.53271,35.96735,35.96735,0,0,0,14.02336,2.655,34.63147,34.63147,0,0,0,11.54018-1.746,25.77889,25.77889,0,0,0,8.56916-4.98855V659.944h15.56976Z" transform="translate(-811.19401 -513.08667)" style="fill: #fff"/>
            </g>
          </g>
          <g id="Group_118-2" data-name="Group 118">
            <g id="Group_117-2" data-name="Group 117">
              <path id="Path_146-2" data-name="Path 146" d="M1244.10023,606.6053h27.3816a41.477,41.477,0,0,1,26.345,7.39967,28.37027,28.37027,0,0,1,3.1373,38.80537,37.0038,37.0038,0,0,1-17.26587,10.38172L1319.261,706.792h-19.07294l-31.92676-40.87284q-1.43028.133-2.9876.133h-6.09715v40.74536h-15.05435Zm15.05435,49.05406h2.2171q30.23582,0,30.23066-19.07289a15.03748,15.03748,0,0,0-5.64263-12.59331,26.01255,26.01255,0,0,0-16.28478-4.43426h-10.53134Z" transform="translate(-811.19401 -513.08667)" style="fill: #fff"/>
            </g>
          </g>
          <g id="Group_120-2" data-name="Group 120">
            <g id="Group_119-2" data-name="Group 119">
              <path id="Path_147-2" data-name="Path 147" d="M1504.04241,631.65335H1503.66a33.16194,33.16194,0,0,0-12.19429-9.02373,41.20518,41.20518,0,0,0-16.6285-3.18158,35.13585,35.13585,0,0,0-14.47787,2.92661,34.36524,34.36524,0,0,0-11.29068,7.97613,35.8783,35.8783,0,0,0-7.32757,11.81178,40.12408,40.12408,0,0,0-2.594,14.5333,42.191,42.191,0,0,0,2.594,15.1264,34.17116,34.17116,0,0,0,7.26668,11.6732,32.84685,32.84685,0,0,0,11.15772,7.59367,36.505,36.505,0,0,0,14.27827,2.72707,40.76248,40.76248,0,0,0,17.25487-3.63608,43.6714,43.6714,0,0,0,14.67189-11.41824h.38246l-1.66278,19.86a50.05757,50.05757,0,0,1-14.92123,7.33316,58.051,58.051,0,0,1-17.00537,2.53308,53.00613,53.00613,0,0,1-20.04286-3.70261,44.769,44.769,0,0,1-15.70847-10.53139,48.46625,48.46625,0,0,1-10.24869-16.41786,59.19132,59.19132,0,0,1-3.697-21.4175,53.12328,53.12328,0,0,1,3.697-19.7214,50.94057,50.94057,0,0,1,10.38165-16.41786,49.26456,49.26456,0,0,1,36.2779-15.37582,64.73426,64.73426,0,0,1,17.73713,2.21713,45.7333,45.7333,0,0,1,14.08426,6.75671Z" transform="translate(-811.19401 -513.08667)" style="fill: #fff"/>
            </g>
          </g>
          <g id="Group_122-2" data-name="Group 122">
            <g id="Group_121-2" data-name="Group 121">
              <path id="Path_148-2" data-name="Path 148" d="M1535.58107,648.39825h35.17486v12.59331h-35.17486v32.57522h41.14446v13.23628H1520.5323V606.6053h55.5337v13.36931h-40.4626Z" transform="translate(-811.19401 -513.08667)" style="fill: #fff"/>
            </g>
          </g>
          <g id="Group_124-2" data-name="Group 124">
            <g id="Group_123-2" data-name="Group 123">
              <path id="Path_149-2" data-name="Path 149" d="M1601.707,692.64113a33.16278,33.16278,0,0,0,13.30276,2.60514,19.39986,19.39986,0,0,0,12.78177-3.83565,12.83715,12.83715,0,0,0,4.60606-10.44269,15.351,15.351,0,0,0-.96993-5.54283,15.95764,15.95764,0,0,0-3.32573-5.06059,34.58755,34.58755,0,0,0-6.23011-5.12712q-3.88029-2.58294-9.73327-5.70357a93.56615,93.56615,0,0,1-10.89723-6.74562,34.20107,34.20107,0,0,1-7.07824-6.75671,22.79084,22.79084,0,0,1-3.82457-7.59368,33.312,33.312,0,0,1-1.16394-9.14567,22.87523,22.87523,0,0,1,7.90963-17.58186,27.49853,27.49853,0,0,1,9.02368-5.1881,34.14927,34.14927,0,0,1,11.61223-1.88456,54.93467,54.93467,0,0,1,22.842,4.80564v16.87238a53.21232,53.21232,0,0,0-11.64-6.36317,29.17751,29.17751,0,0,0-10.1878-1.95108,14.88247,14.88247,0,0,0-10.71437,3.4421,11.17411,11.17411,0,0,0-3.56407,8.36968,15.78759,15.78759,0,0,0,.77608,5.12158,12.28793,12.28793,0,0,0,2.91553,4.48415,31.82245,31.82245,0,0,0,6.03609,4.60609q3.88005,2.4,9.977,5.51512a81.71909,81.71909,0,0,1,11.02477,6.75671,34.01117,34.01117,0,0,1,7.33316,7.20569,25.88312,25.88312,0,0,1,4.02958,8.10917,33.72184,33.72184,0,0,1,1.23042,9.35076,26.4679,26.4679,0,0,1-2.4666,11.63993,25.30241,25.30241,0,0,1-6.94511,8.76323,31.70526,31.70526,0,0,1-10.77527,5.57609,46.42139,46.42139,0,0,1-13.81276,1.95108,54.83511,54.83511,0,0,1-12.79293-1.42451,35.04709,35.04709,0,0,1-10.44271-4.27906l-1.55757-18.5574h.38246A47.48965,47.48965,0,0,0,1601.707,692.64113Z" transform="translate(-811.19401 -513.08667)" style="fill: #fff"/>
            </g>
          </g>
          <g id="Group_126-2" data-name="Group 126">
            <g id="Group_125-2" data-name="Group 125">
              <path id="Path_150-2" data-name="Path 150" d="M1671.91269,692.64113a33.19566,33.19566,0,0,0,13.30276,2.60514,19.39988,19.39988,0,0,0,12.78177-3.83565,12.84273,12.84273,0,0,0,4.61164-10.44269,15.15346,15.15346,0,0,0-.9811-5.54283,15.9335,15.9335,0,0,0-3.32573-5.06059,34.773,34.773,0,0,0-6.21911-5.12712q-3.88-2.58294-9.73328-5.70357a93.71128,93.71128,0,0,1-10.9028-6.74562,33.9455,33.9455,0,0,1-7.06708-6.75671,23.001,23.001,0,0,1-3.83556-7.59368,33.33183,33.33183,0,0,1-1.164-9.14567,23.02577,23.02577,0,0,1,2.073-9.79419,23.27882,23.27882,0,0,1,5.84765-7.76,27.35875,27.35875,0,0,1,9.01826-5.1881,34.14933,34.14933,0,0,1,11.61224-1.88456,55.0011,55.0011,0,0,1,22.8476,4.80564v16.87238a53.41236,53.41236,0,0,0-11.64-6.36317,29.17745,29.17745,0,0,0-10.18779-1.95108,14.84389,14.84389,0,0,0-10.70321,3.4421,11.15187,11.15187,0,0,0-3.57506,8.36968,15.55373,15.55373,0,0,0,.78707,5.12158,12.06689,12.06689,0,0,0,2.91554,4.48415,31.43848,31.43848,0,0,0,6.03067,4.60609q3.8803,2.4,9.977,5.51512a81.76214,81.76214,0,0,1,11.02476,6.75671,34.05548,34.05548,0,0,1,7.33874,7.20568,25.84154,25.84154,0,0,1,4.01859,8.10917,33.74751,33.74751,0,0,1,1.23042,9.35075,26.46791,26.46791,0,0,1-2.4666,11.63994,25.30233,25.30233,0,0,1-6.94512,8.76323,31.68238,31.68238,0,0,1-10.7641,5.57609,46.52643,46.52643,0,0,1-13.82375,1.95108,54.70845,54.70845,0,0,1-12.78177-1.42451,35.01354,35.01354,0,0,1-10.44829-4.27906l-1.55757-18.5574h.38246A47.61885,47.61885,0,0,0,1671.91269,692.64113Z" transform="translate(-811.19401 -513.08667)" style="fill: #fff"/>
            </g>
          </g>
        </g>
        <g id="Group_129-2" data-name="Group 129">
          <g id="Group_128-2" data-name="Group 128">
            <path id="Path_151-2" data-name="Path 151" d="M1380.62569,605.30273l-11.41822,1.818L1324.172,706.792h18.00862l16.87242-42.04791,15.47554-38.79982,14.54435,38.79982,16.35142,42.04791h18.03078Z" transform="translate(-811.19401 -513.08667)" style="fill: #fff"/>
          </g>
        </g>
      </g>
    </g>
  </g>
</svg>
